<?xml version="1.0" encoding="UTF-8" standalone="no"?>
<svg
   version="1.0"
   width="1024.000000pt"
   height="1024.000000pt"
   viewBox="0 0 1024.000000 1024.000000"
   preserveAspectRatio="xMidYMid meet"
   id="svg11"
   sodipodi:docname="logo.svg"
   xml:space="preserve"
   inkscape:version="1.3.2 (091e20e, 2023-11-25)"
   xmlns:inkscape="http://www.inkscape.org/namespaces/inkscape"
   xmlns:sodipodi="http://sodipodi.sourceforge.net/DTD/sodipodi-0.dtd"
   xmlns:xlink="http://www.w3.org/1999/xlink"
   xmlns="http://www.w3.org/2000/svg"
   xmlns:svg="http://www.w3.org/2000/svg"><defs
     id="defs11"><linearGradient
       id="linearGradient14"
       inkscape:collect="always"><stop
         style="stop-color:#000000;stop-opacity:1;"
         offset="0"
         id="stop14" /><stop
         style="stop-color:#000000;stop-opacity:0;"
         offset="1"
         id="stop15" /></linearGradient><linearGradient
       inkscape:collect="always"
       xlink:href="#linearGradient14"
       id="linearGradient15"
       x1="5450.6074"
       y1="5388.3613"
       x2="7127.7173"
       y2="6646.1929"
       gradientUnits="userSpaceOnUse" /></defs><sodipodi:namedview
     id="namedview11"
     pagecolor="#ffffff"
     bordercolor="#999999"
     borderopacity="1"
     inkscape:showpageshadow="2"
     inkscape:pageopacity="0"
     inkscape:pagecheckerboard="0"
     inkscape:deskcolor="#d1d1d1"
     inkscape:document-units="pt"
     inkscape:zoom="0.27038655"
     inkscape:cx="1203.8321"
     inkscape:cy="647.22155"
     inkscape:window-width="1664"
     inkscape:window-height="989"
     inkscape:window-x="0"
     inkscape:window-y="38"
     inkscape:window-maximized="0"
     inkscape:current-layer="svg11" /><g
     transform="matrix(0.12249446,0,0,-0.11155787,-108.24469,1115.6709)"
     fill="#000000"
     stroke="none"
     id="g11"
     style="fill:url(#linearGradient15);fill-opacity:1"><path
       d="m 5680,9193 c 0,-10 9,-65 20,-123 11,-58 30,-186 41,-285 38,-315 26,-847 -22,-1038 -5,-23 -19,-84 -29,-134 -43,-203 -114,-423 -195,-603 -56,-124 -70,-151 -148,-280 -50,-83 -247,-353 -267,-365 -6,-3 -10,-39 -10,-79 0,-395 -317,-1086 -663,-1445 -120,-124 -199,-174 -295,-187 -68,-9 -126,23 -189,102 -54,66 -85,130 -110,226 -21,81 -20,283 1,392 9,44 14,81 12,83 -7,7 -64,-73 -95,-134 -57,-113 -75,-201 -75,-358 -1,-119 3,-151 23,-215 45,-145 116,-256 209,-323 27,-21 52,-37 55,-37 3,0 -7,30 -22,68 -15,37 -31,80 -35,96 l -7,29 38,-34 c 95,-85 235,-148 348,-156 51,-3 57,-2 41,9 -10,7 -41,30 -69,52 l -50,39 79,41 c 44,23 99,55 124,70 258,166 679,588 949,951 45,61 105,140 134,178 122,158 290,467 390,715 l 53,132 139,81 c 198,116 217,129 346,258 420,419 612,1096 453,1603 -33,105 -104,245 -154,300 l -38,43 -5,-55 c -3,-30 -11,-107 -16,-171 -49,-529 -246,-1078 -540,-1504 -30,-44 -68,-96 -84,-115 -43,-52 -220,-230 -224,-226 -2,2 15,32 37,67 95,145 212,429 271,654 119,457 92,902 -77,1273 -70,153 -217,343 -311,403 -31,20 -33,20 -33,2 z"
       id="path1"
       style="fill:#3779b0;fill-opacity:1" /><path
       d="m 8310,8753 c -148,-269 -443,-714 -582,-878 -37,-44 -194,-239 -214,-266 -48,-66 -196,-219 -206,-213 -7,4 -8,2 -4,-5 10,-15 -220,-244 -236,-235 -6,4 -8,3 -5,-3 14,-22 -217,-211 -508,-416 -179,-126 -303,-203 -422,-264 -23,-12 -34,-26 -41,-54 -7,-28 -7,-39 1,-39 23,0 297,82 417,124 578,204 934,413 1261,738 317,316 535,695 616,1068 33,153 21,540 -17,540 -3,0 -31,-44 -60,-97 z"
       id="path2"
       style="fill:#ffd040;fill-opacity:1" /><path
       d="m 8925,7779 c -400,-403 -772,-670 -1151,-823 -86,-35 -107,-48 -144,-91 -132,-153 -394,-339 -745,-527 -60,-33 -99,-57 -85,-54 14,3 142,23 285,45 416,65 600,102 770,157 102,33 316,135 422,202 414,257 714,654 787,1042 17,87 21,190 8,190 -4,0 -70,-63 -147,-141 z"
       id="path4"
       style="fill:#ffdf51;fill-opacity:1" /><path
       d="m 3045,6986 c -220,-51 -340,-151 -459,-384 l -56,-111 -98,-54 c -53,-30 -149,-81 -212,-114 -63,-33 -169,-89 -235,-123 -465,-244 -855,-459 -855,-472 0,-4 10,-3 22,2 23,10 758,244 1203,383 351,110 352,111 470,101 55,-4 141,-8 190,-8 81,1 100,5 185,39 165,67 265,52 304,-45 32,-81 14,-176 -54,-276 -18,-27 -79,-110 -134,-184 -328,-439 -469,-742 -522,-1119 -22,-162 -15,-435 15,-581 89,-419 350,-843 700,-1134 127,-106 431,-304 516,-336 15,-6 25,-26 38,-78 9,-39 37,-127 62,-197 114,-314 245,-516 404,-624 l 56,-39 133,-401 134,-401 h 79 c 66,0 79,3 79,16 0,9 -52,174 -114,368 -159,486 -150,449 -136,558 13,99 8,207 -15,304 -7,32 -12,60 -11,62 2,1 19,-32 37,-75 45,-104 153,-264 226,-335 32,-31 87,-74 122,-95 52,-32 67,-47 79,-79 7,-21 53,-154 102,-294 48,-140 102,-295 120,-343 l 32,-88 79,3 c 44,2 79,7 79,13 0,6 -59,183 -131,395 l -131,385 1,106 c 2,109 -17,255 -44,342 -13,45 -13,48 3,43 9,-3 37,-10 62,-16 208,-52 443,-144 665,-259 187,-97 255,-138 529,-319 121,-80 227,-147 237,-149 39,-11 31,27 -27,130 -31,56 -69,122 -83,147 l -25,45 34,-26 c 78,-58 325,-200 403,-229 103,-40 187,-54 187,-31 0,21 -84,145 -203,301 -53,68 -95,126 -93,127 2,2 19,-4 39,-12 61,-25 177,-46 262,-47 81,-1 195,24 195,41 0,5 -37,30 -82,56 -101,58 -221,138 -268,178 -31,27 -32,30 -10,24 102,-29 182,-39 275,-34 87,4 175,25 175,42 0,2 -19,14 -42,26 -90,46 -256,150 -317,200 -37,29 -77,53 -95,56 -305,42 -685,161 -989,308 -50,25 -97,45 -102,45 -6,0 -37,16 -70,35 -32,20 -60,34 -62,31 -6,-5 113,-97 235,-180 59,-40 213,-133 342,-207 129,-73 269,-160 312,-192 82,-61 255,-240 238,-245 -18,-6 -164,41 -270,88 -58,26 -161,79 -229,119 -68,39 -126,70 -127,68 -2,-2 23,-62 57,-133 77,-161 139,-304 133,-304 -3,0 -42,28 -87,62 -107,80 -296,265 -409,401 -50,59 -92,106 -94,104 -6,-5 25,-205 41,-266 8,-32 15,-63 15,-67 0,-13 -91,88 -155,171 -168,219 -351,597 -474,979 -23,70 -40,131 -37,133 3,3 18,-4 34,-16 59,-42 269,-141 372,-175 146,-49 280,-69 405,-62 98,5 186,24 186,40 0,4 -13,17 -28,29 -95,72 -226,211 -304,325 -28,39 -47,72 -44,72 4,0 20,-9 36,-20 52,-38 233,-119 324,-145 164,-48 363,-42 474,14 l 33,18 -48,28 c -93,53 -180,120 -272,209 -120,116 -130,133 -60,101 148,-67 386,-94 547,-61 98,20 184,51 202,72 10,13 8,16 -12,21 -78,20 -266,139 -329,208 l -25,28 25,-7 c 54,-15 289,-19 367,-6 116,18 283,83 283,109 0,4 -30,13 -66,20 -103,19 -221,59 -324,111 -110,55 -262,154 -303,198 l -29,30 91,-34 c 164,-62 385,-104 546,-104 163,0 338,40 434,98 40,24 45,22 -94,52 -179,40 -322,102 -481,208 -91,62 -249,202 -303,270 l -30,38 112,-39 c 299,-103 540,-143 817,-134 235,8 407,47 541,125 78,46 85,62 27,62 -70,1 -273,45 -408,89 -206,67 -435,194 -560,311 -52,48 -54,51 -25,45 104,-18 312,-35 442,-35 421,0 767,109 976,308 20,20 37,40 37,45 0,6 -65,7 -167,3 -349,-15 -767,37 -993,123 l -52,20 -37,-29 c -79,-63 -256,-125 -448,-157 -92,-15 -176,-17 -578,-18 -322,0 -476,-3 -488,-11 -15,-9 -2,-12 65,-17 110,-9 256,-36 578,-107 146,-32 314,-66 374,-76 l 109,-17 -64,-33 c -189,-95 -527,-127 -944,-89 -174,16 -357,18 -420,6 l -40,-8 35,-6 c 19,-4 75,-14 124,-22 126,-23 287,-74 519,-164 111,-44 244,-92 295,-107 105,-31 104,-35 -12,-65 -191,-50 -463,-47 -831,11 -199,32 -428,50 -410,33 6,-5 39,-15 75,-22 155,-30 330,-99 660,-258 173,-84 240,-113 332,-144 l 38,-13 -33,-14 c -87,-36 -178,-47 -407,-47 -257,1 -295,7 -578,86 -184,52 -319,79 -381,79 -32,-1 -28,-4 43,-30 125,-47 254,-125 355,-216 59,-53 221,-231 221,-243 0,-13 -144,8 -233,34 -48,14 -155,52 -238,85 -145,58 -284,100 -330,100 -16,0 -6,-10 40,-38 103,-62 199,-143 272,-227 37,-43 66,-81 64,-83 -12,-12 -184,28 -335,79 -169,57 -300,92 -308,84 -2,-2 16,-14 40,-26 149,-76 312,-222 451,-406 l 78,-103 h -34 c -55,0 -181,36 -285,82 -91,40 -324,187 -419,264 -23,19 -44,34 -47,34 -3,0 15,-27 42,-59 26,-32 74,-105 108,-162 34,-57 88,-149 120,-204 32,-55 61,-104 63,-108 2,-5 -23,-6 -55,-2 -243,30 -561,203 -841,458 l -53,49 34,-74 c 120,-263 199,-399 306,-526 l 60,-72 h -52 c -293,1 -651,238 -799,530 l -33,65 -9,-40 c -5,-22 -6,-94 -4,-160 6,-137 29,-237 81,-349 19,-42 31,-76 28,-76 -19,0 -145,117 -188,173 -60,80 -128,220 -155,322 -32,118 -32,327 0,448 12,49 21,91 18,93 -2,3 -27,-20 -55,-51 -64,-70 -116,-173 -139,-275 -10,-44 -21,-80 -24,-80 -12,0 -39,167 -45,276 -12,220 34,434 141,649 92,186 164,275 450,560 303,301 361,382 411,567 24,89 22,244 -3,324 -63,194 -223,294 -420,264 -96,-15 -192,-65 -303,-159 -213.4771,-151.2636 -339.8878,-59.2998 -554.5805,67.4195 59,89 204.5805,198.5805 379.5805,255.5805 136,44 236,59 369,54 119,-5 120,-5 96,14 -48,39 -154,91 -223,110 -95,25 -244,32 -322,14 z"
       id="path7"
       style="fill:#a5a5a5;fill-opacity:1"
       inkscape:label="path7"
       sodipodi:nodetypes="ccccscsccccccccccccccccccssccccccccccccsccccccccccccccsccccsccccsccccsccccccccccsccccsccccccsccsccccccccccccccscccccsccccccccccccscsccccccccccccccccccccccccccccccccsccsccscscccsccscsscccccccccccccsccccccsccccccccccccc" /><path
       d="m 9125,6653 c -254,-91 -527,-161 -749,-193 -168,-24 -424,-44 -490,-37 -48,4 -54,2 -96,-33 -194,-162 -522,-269 -995,-325 -156,-19 -307,-45 -318,-55 -4,-4 81,-10 190,-13 109,-3 266,-13 348,-21 663,-66 1063,-40 1467,95 111,37 266,114 362,178 135,90 284,248 342,363 25,49 30,69 17,67 -5,0 -39,-12 -78,-26 z"
       id="path8"
       style="fill:#ffe95c;fill-opacity:1" /></g><text
     xml:space="preserve"
     style="font-style:normal;font-variant:normal;font-weight:bold;font-stretch:normal;font-size:210.417px;font-family:'Noto Serif Myanmar';-inkscape-font-specification:'Noto Serif Myanmar, Bold';font-variant-ligatures:normal;font-variant-caps:normal;font-variant-numeric:normal;font-variant-east-asian:normal;fill:#3779b0;fill-opacity:1;stroke-width:19.6431"
     x="27.105162"
     y="239.64175"
     id="text18"
     transform="scale(0.96446226,1.0368472)"><tspan
       sodipodi:role="line"
       id="tspan18"
       style="font-style:normal;font-variant:normal;font-weight:bold;font-stretch:normal;font-size:210.417px;font-family:'Noto Serif Myanmar';-inkscape-font-specification:'Noto Serif Myanmar, Bold';font-variant-ligatures:normal;font-variant-caps:normal;font-variant-numeric:normal;font-variant-east-asian:normal;fill:#3779b0;fill-opacity:1;stroke-width:19.6431"
       x="27.105162"
       y="239.64175">Turu</tspan></text></svg>
